<mxfile host="app.diagrams.net" modified="2023-07-24T15:28:55.245Z" agent="Mozilla/5.0 (Windows NT 10.0; Win64; x64) AppleWebKit/537.36 (KHTML, like Gecko) Chrome/115.0.0.0 Safari/537.36 Edg/115.0.1901.183" etag="RCaMJN1chyKspEtHFwqe" version="21.6.1" type="github">
  <diagram name="Page-1" id="WGVDs7hibCahkKVk6LKa">
    <mxGraphModel dx="2074" dy="1148" grid="1" gridSize="10" guides="1" tooltips="1" connect="1" arrows="1" fold="1" page="1" pageScale="1" pageWidth="850" pageHeight="1100" math="0" shadow="0">
      <root>
        <mxCell id="0" />
        <mxCell id="1" parent="0" />
        <mxCell id="8SBdYPRjdCvompuRouHJ-15" value="dax blob container" style="rounded=1;whiteSpace=wrap;html=1;verticalAlign=top;dashed=1;" vertex="1" parent="1">
          <mxGeometry x="60" y="170" width="160" height="120" as="geometry" />
        </mxCell>
        <mxCell id="8SBdYPRjdCvompuRouHJ-14" value="ffc-pay-responses&lt;br&gt;" style="rounded=1;whiteSpace=wrap;html=1;verticalAlign=top;dashed=1;" vertex="1" parent="1">
          <mxGeometry x="250" y="170" width="160" height="240" as="geometry" />
        </mxCell>
        <mxCell id="8SBdYPRjdCvompuRouHJ-6" value="" style="edgeStyle=orthogonalEdgeStyle;rounded=0;orthogonalLoop=1;jettySize=auto;html=1;" edge="1" parent="1" source="8SBdYPRjdCvompuRouHJ-1" target="8SBdYPRjdCvompuRouHJ-5">
          <mxGeometry relative="1" as="geometry" />
        </mxCell>
        <mxCell id="8SBdYPRjdCvompuRouHJ-1" value="Return file" style="rounded=1;whiteSpace=wrap;html=1;" vertex="1" parent="1">
          <mxGeometry x="80" y="200" width="120" height="60" as="geometry" />
        </mxCell>
        <mxCell id="8SBdYPRjdCvompuRouHJ-8" value="" style="edgeStyle=orthogonalEdgeStyle;rounded=0;orthogonalLoop=1;jettySize=auto;html=1;" edge="1" parent="1" source="8SBdYPRjdCvompuRouHJ-5" target="8SBdYPRjdCvompuRouHJ-7">
          <mxGeometry relative="1" as="geometry" />
        </mxCell>
        <mxCell id="8SBdYPRjdCvompuRouHJ-5" value="Add source system" style="rounded=1;whiteSpace=wrap;html=1;" vertex="1" parent="1">
          <mxGeometry x="270" y="215" width="120" height="30" as="geometry" />
        </mxCell>
        <mxCell id="8SBdYPRjdCvompuRouHJ-10" value="" style="edgeStyle=orthogonalEdgeStyle;rounded=0;orthogonalLoop=1;jettySize=auto;html=1;" edge="1" parent="1" source="8SBdYPRjdCvompuRouHJ-7" target="8SBdYPRjdCvompuRouHJ-9">
          <mxGeometry relative="1" as="geometry" />
        </mxCell>
        <mxCell id="8SBdYPRjdCvompuRouHJ-7" value="Convert value to pence" style="rounded=1;whiteSpace=wrap;html=1;" vertex="1" parent="1">
          <mxGeometry x="270" y="265" width="120" height="30" as="geometry" />
        </mxCell>
        <mxCell id="8SBdYPRjdCvompuRouHJ-12" value="" style="edgeStyle=orthogonalEdgeStyle;rounded=0;orthogonalLoop=1;jettySize=auto;html=1;" edge="1" parent="1" source="8SBdYPRjdCvompuRouHJ-9" target="8SBdYPRjdCvompuRouHJ-11">
          <mxGeometry relative="1" as="geometry" />
        </mxCell>
        <mxCell id="8SBdYPRjdCvompuRouHJ-9" value="Add additional properties" style="rounded=1;whiteSpace=wrap;html=1;" vertex="1" parent="1">
          <mxGeometry x="270" y="315" width="120" height="30" as="geometry" />
        </mxCell>
        <mxCell id="8SBdYPRjdCvompuRouHJ-17" value="" style="edgeStyle=orthogonalEdgeStyle;rounded=0;orthogonalLoop=1;jettySize=auto;html=1;" edge="1" parent="1" source="8SBdYPRjdCvompuRouHJ-11" target="8SBdYPRjdCvompuRouHJ-16">
          <mxGeometry relative="1" as="geometry" />
        </mxCell>
        <mxCell id="8SBdYPRjdCvompuRouHJ-11" value="Publish message" style="rounded=1;whiteSpace=wrap;html=1;" vertex="1" parent="1">
          <mxGeometry x="270" y="365" width="120" height="30" as="geometry" />
        </mxCell>
        <mxCell id="8SBdYPRjdCvompuRouHJ-16" value="ffc-pay-return&lt;br&gt;topic" style="rounded=1;whiteSpace=wrap;html=1;" vertex="1" parent="1">
          <mxGeometry x="480" y="350" width="120" height="60" as="geometry" />
        </mxCell>
        <mxCell id="8SBdYPRjdCvompuRouHJ-18" value="ffc-pay-tracking" style="rounded=1;whiteSpace=wrap;html=1;verticalAlign=top;dashed=1;" vertex="1" parent="1">
          <mxGeometry x="661" y="380" width="160" height="140" as="geometry" />
        </mxCell>
        <mxCell id="8SBdYPRjdCvompuRouHJ-19" value="ffc-pay-processing" style="rounded=1;whiteSpace=wrap;html=1;verticalAlign=top;dashed=1;" vertex="1" parent="1">
          <mxGeometry x="660" y="275" width="160" height="70" as="geometry" />
        </mxCell>
        <mxCell id="8SBdYPRjdCvompuRouHJ-27" value="" style="edgeStyle=orthogonalEdgeStyle;rounded=0;orthogonalLoop=1;jettySize=auto;html=1;" edge="1" parent="1" source="8SBdYPRjdCvompuRouHJ-21" target="8SBdYPRjdCvompuRouHJ-26">
          <mxGeometry relative="1" as="geometry" />
        </mxCell>
        <mxCell id="8SBdYPRjdCvompuRouHJ-21" value="Build new return file" style="rounded=1;whiteSpace=wrap;html=1;" vertex="1" parent="1">
          <mxGeometry x="681" y="420" width="120" height="30" as="geometry" />
        </mxCell>
        <mxCell id="8SBdYPRjdCvompuRouHJ-23" value="Update settlement status" style="rounded=1;whiteSpace=wrap;html=1;" vertex="1" parent="1">
          <mxGeometry x="680" y="305" width="120" height="30" as="geometry" />
        </mxCell>
        <mxCell id="8SBdYPRjdCvompuRouHJ-24" style="edgeStyle=orthogonalEdgeStyle;rounded=0;orthogonalLoop=1;jettySize=auto;html=1;entryX=0;entryY=0.5;entryDx=0;entryDy=0;" edge="1" parent="1" source="8SBdYPRjdCvompuRouHJ-16" target="8SBdYPRjdCvompuRouHJ-23">
          <mxGeometry relative="1" as="geometry" />
        </mxCell>
        <mxCell id="8SBdYPRjdCvompuRouHJ-25" style="edgeStyle=orthogonalEdgeStyle;rounded=0;orthogonalLoop=1;jettySize=auto;html=1;exitX=1;exitY=0.5;exitDx=0;exitDy=0;" edge="1" parent="1" source="8SBdYPRjdCvompuRouHJ-16" target="8SBdYPRjdCvompuRouHJ-21">
          <mxGeometry relative="1" as="geometry">
            <Array as="points">
              <mxPoint x="640" y="380" />
              <mxPoint x="640" y="435" />
            </Array>
          </mxGeometry>
        </mxCell>
        <mxCell id="8SBdYPRjdCvompuRouHJ-26" value="Transfer to MG via FTP" style="rounded=1;whiteSpace=wrap;html=1;" vertex="1" parent="1">
          <mxGeometry x="681" y="472" width="120" height="30" as="geometry" />
        </mxCell>
        <mxCell id="8SBdYPRjdCvompuRouHJ-28" value="Managed Gateway" style="rounded=1;whiteSpace=wrap;html=1;verticalAlign=top;dashed=1;" vertex="1" parent="1">
          <mxGeometry x="860" y="427" width="160" height="120" as="geometry" />
        </mxCell>
        <mxCell id="8SBdYPRjdCvompuRouHJ-29" value="Return file" style="rounded=1;whiteSpace=wrap;html=1;" vertex="1" parent="1">
          <mxGeometry x="880" y="457" width="120" height="60" as="geometry" />
        </mxCell>
        <mxCell id="8SBdYPRjdCvompuRouHJ-30" style="edgeStyle=orthogonalEdgeStyle;rounded=0;orthogonalLoop=1;jettySize=auto;html=1;" edge="1" parent="1" source="8SBdYPRjdCvompuRouHJ-26" target="8SBdYPRjdCvompuRouHJ-29">
          <mxGeometry relative="1" as="geometry" />
        </mxCell>
      </root>
    </mxGraphModel>
  </diagram>
</mxfile>
